<svg width="91.000000" height="38.000000" viewBox="0 0 91 38" fill="none" xmlns="http://www.w3.org/2000/svg" xmlns:xlink="http://www.w3.org/1999/xlink">
	<desc>
			Created with Pixso.
	</desc>
	<defs>
		<clipPath id="clip22_363">
			<rect id="zara-logo-1 1" rx="0.000000" width="90.000000" height="37.000000" transform="translate(0.500000 0.500000)" fill="white" fill-opacity="0"/>
		</clipPath>
	</defs>
	<rect id="zara-logo-1 1" rx="0.000000" width="90.000000" height="37.000000" transform="translate(0.500000 0.500000)" fill="#FFFFFF" fill-opacity="0"/>
	<g clip-path="url(#clip22_363)">
		<path id="Vector" d="M86.33 36.86L72.85 0.03L72.84 0L72.57 0L69.79 7.57L64.74 21.35L64.73 21.34C62.98 19.81 60.5 18.85 57.39 18.49L56.44 18.4L57.38 18.28C62.52 17.36 65.97 14.14 65.97 10.27C65.97 4.95 60.93 1.24 53.71 1.24L38.7 1.24L38.7 1.51L43.06 1.51L43.06 28.98L32.47 0.03L32.46 0L32.19 0L29.42 7.57L18.71 36.77L18.64 36.78C18.46 36.8 18.28 36.82 18.1 36.83C17.83 36.85 17.56 36.86 17.29 36.86L6.47 36.86L27.04 1.51L27.19 1.25L2.04 1.25L2.04 12.18L2.31 12.18C2.35 6.86 5.48 1.51 12.39 1.51L20.72 1.51L0 37.13L27.91 37.13L27.91 26.65L27.65 26.65C27.61 31.29 24.96 35.7 19.19 36.7L19.01 36.73L23.4 24.75L35.7 24.75L40.14 36.86L35.76 36.86L35.76 37.13L52.93 37.13L52.93 36.86L48.54 36.86L48.54 18.59L53.6 18.59C58.76 18.59 61.72 20.88 61.72 24.86L61.72 28.1C61.72 28.46 61.74 28.98 61.77 29.42L61.77 29.44L59.05 36.86L55.49 36.86L55.49 37.13L62.85 37.13L62.85 36.86L59.33 36.86L61.81 30.1C61.82 30.16 61.82 30.2 61.82 30.2L61.89 30.81L61.96 31.22C62.37 33.71 63.33 35.54 64.81 36.66L65.03 36.82C66.15 37.59 67.55 37.99 69.18 37.99C71.35 37.99 72.79 37.45 73.98 36.19L73.83 36.05C72.73 37.05 71.81 37.46 70.65 37.46C68.69 37.46 67.66 35.09 67.66 32.76L67.66 28.21C67.67 27.09 67.49 25.97 67.13 24.9L67.08 24.76L67.08 24.75L76.08 24.75L80.51 36.86L76.14 36.86L76.14 37.13L91 37.13L91 36.86L86.33 36.86ZM23.5 24.48L29.56 7.96L35.61 24.48L23.5 24.48ZM48.54 18.32L48.54 1.51L52.41 1.51C57.57 1.51 60.3 4.56 60.3 10.32C60.3 16.45 58.74 18.32 53.6 18.32L48.54 18.32ZM66.98 24.48L66.95 24.42C66.55 23.45 65.97 22.57 65.23 21.82L64.98 21.57L64.95 21.54L69.93 7.96L75.98 24.48L66.98 24.48Z" fill="#FFFFFF" fill-opacity="1.000000" fill-rule="nonzero"/>
	</g>
</svg>
