<svg width="156.000000" height="36.000000" viewBox="0 0 156 36" fill="none" xmlns="http://www.w3.org/2000/svg" xmlns:xlink="http://www.w3.org/1999/xlink">
	<desc>
			Created with Pixso.
	</desc>
	<defs>
		<clipPath id="clip22_365">
			<rect id="gucci-logo-1 1" rx="0.000000" width="155.000000" height="35.000000" transform="translate(0.500000 0.500000)" fill="white" fill-opacity="0"/>
		</clipPath>
	</defs>
	<rect id="gucci-logo-1 1" rx="0.000000" width="155.000000" height="35.000000" transform="translate(0.500000 0.500000)" fill="#FFFFFF" fill-opacity="0"/>
	<g clip-path="url(#clip22_365)">
		<path id="Vector" d="M141.31 11.29L141.02 11.38C139.88 9.04 138.26 7.17 136.16 5.78C134.08 4.4 131.48 3.7 128.34 3.7C126.59 3.7 124.92 4.06 123.33 4.77C121.74 5.44 120.35 6.42 119.15 7.68C117.99 8.91 117.05 10.41 116.34 12.17C115.62 13.92 115.27 15.87 115.27 17.99C115.27 20.12 115.62 22.06 116.34 23.82C117.05 25.58 117.99 27.09 119.15 28.36C120.35 29.59 121.74 30.54 123.33 31.22C124.92 31.9 126.59 32.24 128.34 32.24C131.45 32.24 133.97 31.78 135.91 30.85C137.89 29.9 139.56 28.45 140.92 26.51L141.21 26.6L141.11 29.56C140.37 30.3 139.51 30.96 138.54 31.55C137.57 32.1 136.51 32.58 135.38 32.98C134.28 33.35 133.13 33.63 131.93 33.81C130.73 34.03 129.53 34.14 128.34 34.14C125.84 34.14 123.46 33.75 121.19 32.98C118.93 32.21 116.94 31.13 115.22 29.74C113.5 28.32 112.14 26.63 111.14 24.66C110.13 22.65 109.63 20.43 109.63 17.99C109.63 15.56 110.13 13.35 111.14 11.38C112.14 9.38 113.5 7.66 115.22 6.25C116.94 4.83 118.93 3.75 121.19 3.01C123.46 2.24 125.84 1.85 128.34 1.85C129.53 1.85 130.73 1.94 131.93 2.13C133.13 2.31 134.28 2.61 135.38 3.01C136.51 3.38 137.57 3.86 138.54 4.44C139.51 5 140.37 5.65 141.11 6.39L141.31 11.29ZM34.25 20.12C33.89 20.28 33.55 20.48 33.23 20.72C32.9 20.97 32.74 21.31 32.74 21.74L32.74 27.43C31.19 29.56 29.19 31.21 26.76 32.38C24.34 33.55 21.65 34.14 18.7 34.14C16.21 34.14 13.83 33.75 11.56 32.98C9.29 32.21 7.3 31.13 5.58 29.74C3.87 28.33 2.51 26.63 1.5 24.66C0.5 22.65 0 20.43 0 18C0 15.56 0.5 13.35 1.5 11.38C2.51 9.38 3.87 7.67 5.58 6.25C7.3 4.83 9.29 3.75 11.56 3.01C13.83 2.24 16.21 1.85 18.7 1.85C19.9 1.85 21.1 1.95 22.3 2.13C23.49 2.32 24.64 2.61 25.74 3.01C26.88 3.38 27.93 3.86 28.9 4.44C29.87 5 30.73 5.65 31.48 6.39L31.67 11.29L31.38 11.38C30.25 9.04 28.63 7.17 26.52 5.78C24.45 4.4 21.84 3.7 18.7 3.7C16.95 3.7 15.28 4.06 13.7 4.77C12.11 5.45 10.72 6.42 9.52 7.68C8.35 8.91 7.41 10.41 6.7 12.17C5.99 13.92 5.63 15.87 5.63 18C5.63 20.09 5.97 22.02 6.65 23.78C7.36 25.53 8.3 27.05 9.47 28.31C10.67 29.54 12.06 30.51 13.65 31.22C15.23 31.9 16.92 32.24 18.7 32.24C22.07 32.24 24.95 31.62 27.35 30.39L27.35 21.74C27.35 21.31 27.17 20.97 26.81 20.72C26.49 20.48 26.17 20.28 25.84 20.12L25.89 19.89C26.05 19.92 26.34 19.95 26.76 19.98C27.18 20.01 27.62 20.04 28.07 20.08L32.25 20.08C32.64 20.05 33.01 20.02 33.37 19.98C33.73 19.96 34 19.92 34.19 19.89L34.25 20.12ZM69.44 2.82C69.11 2.98 68.79 3.18 68.47 3.43C68.14 3.67 67.96 4.13 67.93 4.81C67.9 5.55 67.87 6.49 67.83 7.63C67.83 8.74 67.82 10.01 67.79 11.43C67.79 12.85 67.78 14.39 67.75 16.05L67.75 21.23C67.72 23.24 67.46 24.95 66.97 26.37C66.48 27.79 65.83 28.97 65.02 29.93C64.25 30.88 63.37 31.64 62.4 32.2C61.46 32.75 60.52 33.17 59.58 33.44C58.68 33.75 57.82 33.94 57.01 34C56.2 34.09 55.57 34.14 55.11 34.14C53.27 34.14 51.49 33.91 49.77 33.44C48.05 33.01 46.55 32.3 45.25 31.32C43.96 30.33 42.92 29.05 42.14 27.48C41.36 25.9 40.98 23.99 40.98 21.74L40.98 16.52L40.98 11.7C40.98 10.22 40.96 8.9 40.93 7.73C40.93 6.52 40.92 5.55 40.89 4.81C40.86 4.13 40.68 3.67 40.35 3.43C40.03 3.18 39.7 2.98 39.38 2.82L39.43 2.59C39.59 2.62 39.85 2.65 40.2 2.69C40.59 2.71 40.98 2.74 41.37 2.78C41.79 2.78 42.2 2.79 42.58 2.82L44.33 2.82C44.72 2.79 45.13 2.78 45.55 2.78C45.97 2.75 46.36 2.72 46.71 2.69C47.1 2.66 47.38 2.63 47.54 2.59L47.58 2.82C47.23 2.98 46.89 3.18 46.56 3.43C46.27 3.67 46.11 4.13 46.08 4.81C46.05 5.55 46.01 6.52 45.98 7.73L45.98 21.74C45.98 25.1 46.81 27.59 48.46 29.19C50.11 30.79 52.55 31.59 55.79 31.59C56.73 31.59 57.8 31.49 59 31.27C60.2 31.02 61.32 30.53 62.35 29.79C63.42 29.05 64.31 28 65.02 26.64C65.77 25.29 66.14 23.48 66.14 21.23C66.14 18.8 66.13 16.72 66.1 14.99C66.1 13.23 66.08 11.74 66.05 10.5C66.05 9.24 66.04 8.16 66.01 7.26C65.98 6.37 65.95 5.55 65.91 4.81C65.88 4.13 65.7 3.67 65.38 3.43C65.05 3.18 64.73 2.98 64.41 2.82L64.45 2.59C64.81 2.65 65.21 2.72 65.67 2.78C66.12 2.81 66.54 2.82 66.93 2.82C67.28 2.82 67.69 2.81 68.14 2.78C68.63 2.72 69.05 2.65 69.41 2.59L69.44 2.82ZM104.69 11.29L104.4 11.38C103.27 9.04 101.65 7.17 99.54 5.78C97.47 4.4 94.86 3.7 91.72 3.7C89.97 3.7 88.3 4.06 86.72 4.77C85.13 5.44 83.74 6.42 82.54 7.68C81.37 8.91 80.43 10.41 79.72 12.17C79.01 13.92 78.65 15.87 78.65 17.99C78.65 20.12 79.01 22.06 79.72 23.82C80.43 25.58 81.37 27.09 82.54 28.36C83.74 29.59 85.13 30.54 86.72 31.22C88.3 31.9 89.97 32.24 91.72 32.24C94.83 32.24 97.36 31.78 99.3 30.85C101.27 29.9 102.94 28.45 104.3 26.51L104.59 26.6L104.5 29.56C103.75 30.3 102.89 30.96 101.92 31.55C100.95 32.1 99.9 32.58 98.76 32.98C97.66 33.35 96.51 33.63 95.31 33.81C94.12 34.03 92.92 34.14 91.72 34.14C89.23 34.14 86.84 33.75 84.58 32.98C82.31 32.21 80.32 31.13 78.6 29.74C76.89 28.32 75.52 26.63 74.52 24.66C73.52 22.65 73.01 20.43 73.01 17.99C73.01 15.56 73.52 13.35 74.52 11.38C75.52 9.38 76.89 7.66 78.6 6.25C80.32 4.83 82.31 3.75 84.58 3.01C86.84 2.24 89.23 1.85 91.72 1.85C92.92 1.85 94.12 1.94 95.31 2.13C96.51 2.31 97.66 2.61 98.76 3.01C99.9 3.38 100.95 3.86 101.92 4.44C102.89 5 103.75 5.65 104.5 6.39L104.69 11.29ZM155.95 33.35C155.79 33.32 155.51 33.29 155.13 33.26C154.77 33.26 154.38 33.24 153.96 33.22C153.54 33.22 153.13 33.2 152.74 33.17L149.83 33.17C149.44 33.2 149.05 33.23 148.66 33.27C148.31 33.29 148.03 33.33 147.84 33.36L147.79 33.17C148.12 33.02 148.44 32.82 148.77 32.57C149.09 32.33 149.27 31.86 149.3 31.18C149.33 30.44 149.34 29.67 149.34 28.87C149.37 28.07 149.39 27.16 149.39 26.14L149.39 22.67L149.39 18L149.39 13.33L149.39 9.82C149.39 8.8 149.37 7.9 149.34 7.13C149.34 6.33 149.33 5.56 149.3 4.82C149.27 4.14 149.09 3.68 148.77 3.43C148.44 3.15 148.12 2.94 147.79 2.79L147.84 2.6C148.03 2.66 148.31 2.71 148.66 2.74C149.05 2.74 149.44 2.75 149.83 2.78C150.25 2.81 150.66 2.82 151.04 2.82L152.74 2.82C153.13 2.79 153.54 2.78 153.96 2.78C154.38 2.75 154.77 2.72 155.13 2.69C155.51 2.66 155.79 2.63 155.95 2.6L156 2.78C155.64 2.94 155.3 3.15 154.98 3.43C154.68 3.68 154.52 4.14 154.49 4.82C154.46 5.56 154.43 6.33 154.39 7.13L154.39 28.87C154.42 29.67 154.45 30.44 154.49 31.18C154.52 31.86 154.68 32.32 154.98 32.57C155.3 32.81 155.64 33.02 156 33.17L155.95 33.35Z" fill="#FFFFFF" fill-opacity="1.000000" fill-rule="nonzero"/>
	</g>
</svg>
