<svg width="195.436829" height="32.224060" viewBox="0 0 195.437 32.2241" fill="none" xmlns="http://www.w3.org/2000/svg" xmlns:xlink="http://www.w3.org/1999/xlink">
	<desc>
			Created with Pixso.
	</desc>
	<defs/>
	<path id="Vector" d="M1.13 1.01L4.06 4.32L4.06 28.52L1.89 31.68L15.2 31.71L12.8 28.79L12.55 20.08L25.38 20.15C29.27 18.85 33.27 16.09 33.46 10.51C33.4 5.1 30.1 1.63 26.27 0.94L1.13 1.01ZM12.08 2.56L12.08 18.11L21.92 18.18C24.16 16.37 25.86 14.99 25.79 10.65C25.76 7.11 25.01 4.03 21.72 2.56L12.08 2.56ZM39.62 0.83L42.56 4.14L42.56 28.34L40.38 31.51L53.69 31.53L51.29 28.62L51.04 19.9L51.1 19.9L64.85 31.63L76.26 31.54L65.84 22.53L57.15 22.53L54.09 19.92L63.88 19.97C67.77 18.67 71.76 15.91 71.96 10.33C71.9 4.92 68.59 1.45 64.76 0.76L39.62 0.83ZM50.57 2.38L50.57 17.93L60.41 18C62.66 16.19 64.35 14.81 64.29 10.47C64.25 6.94 63.51 3.85 60.21 2.38L50.57 2.38ZM87.24 0.8L98.72 0.8L113.66 28.52C114.31 30.66 116.24 30.39 117.53 31.33L103.07 31.33L105.24 30.65L105.1 28.59L101.37 22.61L88.67 22.68L85.95 28.45C85.86 29.11 85.16 29.6 85.68 30.42L86.7 31.4L80.45 31.26L83.17 30.42L93.42 8.82L93.42 7.34L89.09 1.56L87.24 0.8ZM89.47 20.71L94.75 10.72L100.24 20.65L89.47 20.71ZM164.85 0.86L176.32 0.86L191.26 28.58C191.91 30.72 193.84 30.46 195.13 31.39L180.67 31.39L182.84 30.71L182.7 28.65L178.97 22.67L166.27 22.74L163.56 28.51C163.46 29.17 162.76 29.66 163.28 30.48L164.3 31.46L158.06 31.32L160.77 30.48L171.03 8.88L171.03 7.4L166.69 1.62L164.85 0.86ZM167.07 20.77L172.35 10.78L177.84 20.71L167.07 20.77ZM121.5 0.51L141.94 0.62C148.52 2.16 152.71 6.19 154.01 13.2L153.96 18.67C152.76 24.93 148.82 29.24 141.89 31.42L121.39 31.48L121.39 30.82C124.5 30.58 124.75 30.23 124.76 28.38L124.76 3.44C124.72 2.07 124.45 1.22 121.44 1.13L121.5 0.51ZM133.12 2.64L133.1 29.62C135.8 29.63 138.13 29.88 139.46 29.21C142.45 27.84 143.84 25.74 143.97 23.77L143.9 7.84C143.9 5.29 141.13 3.49 139.53 3.02C138.39 2.6 136.11 2.58 133.12 2.64Z" fill="#FFFFFF" fill-opacity="1.000000" fill-rule="evenodd"/>
	<path id="Vector" d="M4.06 4.32L4.06 28.52L1.89 31.68L15.2 31.71L12.8 28.79L12.55 20.08L25.38 20.15C29.27 18.85 33.27 16.09 33.46 10.51C33.4 5.1 30.1 1.63 26.27 0.94L1.13 1.01L4.06 4.32ZM12.08 18.11L21.92 18.18C24.16 16.37 25.86 14.99 25.79 10.65C25.76 7.11 25.01 4.03 21.72 2.56L12.08 2.56L12.08 18.11ZM42.56 4.14L42.56 28.34L40.38 31.51L53.69 31.53L51.29 28.62L51.04 19.9L51.1 19.9L64.85 31.63L76.26 31.54L65.84 22.53L57.15 22.53L54.09 19.92L63.88 19.97C67.77 18.67 71.76 15.91 71.96 10.33C71.9 4.92 68.59 1.45 64.76 0.76L39.62 0.83L42.56 4.14ZM50.57 17.93L60.41 18C62.66 16.19 64.35 14.81 64.29 10.47C64.25 6.94 63.51 3.85 60.21 2.38L50.57 2.38L50.57 17.93ZM98.72 0.8L113.66 28.52C114.31 30.66 116.24 30.39 117.53 31.33L103.07 31.33L105.24 30.65L105.1 28.59L101.37 22.61L88.67 22.68L85.95 28.45C85.86 29.11 85.16 29.6 85.68 30.42L86.7 31.4L80.45 31.26L83.17 30.42L93.42 8.82L93.42 7.34L89.09 1.56L87.24 0.8L98.72 0.8ZM94.75 10.72L100.24 20.65L89.47 20.71L94.75 10.72ZM176.32 0.86L191.26 28.58C191.91 30.72 193.84 30.46 195.13 31.39L180.67 31.39L182.84 30.71L182.7 28.65L178.97 22.67L166.27 22.74L163.56 28.51C163.46 29.17 162.76 29.66 163.28 30.48L164.3 31.46L158.06 31.32L160.77 30.48L171.03 8.88L171.03 7.4L166.69 1.62L164.85 0.86L176.32 0.86ZM172.35 10.78L177.84 20.71L167.07 20.77L172.35 10.78ZM141.94 0.62C148.52 2.16 152.71 6.19 154.01 13.2L153.96 18.67C152.76 24.93 148.82 29.24 141.89 31.42L121.39 31.48L121.39 30.82C124.5 30.58 124.75 30.23 124.76 28.38L124.76 3.44C124.72 2.07 124.45 1.22 121.44 1.13L121.5 0.51L141.94 0.62ZM133.1 29.62C135.8 29.63 138.13 29.88 139.46 29.21C142.45 27.84 143.84 25.74 143.97 23.77L143.9 7.84C143.9 5.29 141.13 3.49 139.53 3.02C138.39 2.6 136.11 2.58 133.12 2.64L133.1 29.62Z" stroke="#FFFFFF" stroke-opacity="1.000000" stroke-width="1.024185"/>
</svg>
