<svg width="206.787842" height="33.348083" viewBox="0 0 206.788 33.3481" fill="none" xmlns="http://www.w3.org/2000/svg" xmlns:xlink="http://www.w3.org/1999/xlink">
	<desc>
			Created with Pixso.
	</desc>
	<defs/>
	<path id="Vector" d="M16.64 30.45C9.4 30.45 3.23 23.88 3.23 16.72C3.23 9.59 9.28 2.89 16.59 2.89C21.4 2.89 24.86 5.22 27.68 8.86L31.22 8.86C30.16 6.95 29.03 5.19 27.29 3.82C24.32 1.42 20.47 0 16.64 0C7.47 0 0 7.57 0 16.7C0 25.85 7.57 33.34 16.7 33.34C20.42 33.34 24.06 31.97 26.98 29.67C28.82 28.2 30.11 26.29 31.35 24.32L27.81 24.32C25.02 27.97 21.45 30.45 16.64 30.45ZM53.35 13C51.13 10.13 48.1 8.32 44.36 8.32C37.64 8.32 32.1 13.77 32.1 20.5C32.1 27.22 37.66 32.72 44.36 32.72C48.26 32.72 50.97 31.09 53.35 28.1L53.35 32.18L56.27 32.18L56.27 8.89L53.35 8.89L53.35 13ZM44.2 30.03C39.06 30.03 35 25.56 35 20.52C35 15.51 39.03 11.01 44.2 11.01C49.35 11.01 53.35 15.51 53.35 20.52C53.35 25.56 49.32 30.03 44.2 30.03ZM59.82 32.18L62.94 32.18L62.94 0.67L59.82 0.67L59.82 32.18ZM74.76 28.48L66.85 8.89L63.74 8.89L73.23 32.18L76.39 32.18L85.85 8.89L82.8 8.89L74.76 28.48ZM87.14 32.18L90.27 32.18L90.27 8.89L87.14 8.89L87.14 32.18ZM87.14 5.89L90.27 5.89L90.27 0.67L87.14 0.67L87.14 5.89ZM103.74 8.32C100.79 8.32 98.7 9.87 96.76 11.94L96.76 8.89L93.86 8.89L93.86 32.18L96.94 32.18L96.94 17.99C96.91 14.24 100.01 11.01 103.79 11.01C108.52 11.01 110.9 15.12 110.9 19.36L110.9 32.18L113.79 32.18L113.79 19.36C113.79 13.31 110.25 8.32 103.74 8.32ZM142.82 0.67L128.61 18.74L128.61 0.67L125.53 0.67L125.53 32.18L128.61 32.18L128.61 23.52L132.64 18.5L142.9 32.18L146.81 32.18L134.6 16.02L146.81 0.67L142.82 0.67ZM147.94 32.18L151 32.18L151 0.67L147.94 0.67L147.94 32.18ZM176.25 14.76C174.13 10.8 169.89 8.32 165.42 8.32C158.75 8.32 153.11 13.88 153.11 20.55C153.11 27.27 158.8 32.72 165.47 32.72C168.65 32.72 171.78 31.46 174.08 29.26C175.48 27.94 176.3 26.28 177.05 24.55L173.77 24.55C172.11 27.78 169.19 30.03 165.42 30.03C163.12 30.03 160.87 29.1 159.16 27.52C157.4 25.92 156.63 23.96 156.29 21.63L177.78 21.63C177.78 19.2 177.44 16.88 176.25 14.76ZM156.4 18.94C157.33 14.58 160.77 11.01 165.47 11.01C169.43 11.01 173.67 13.44 174.6 18.94L156.4 18.94ZM180.05 32.18L183.13 32.18L183.13 8.89L180.05 8.89L180.05 32.18ZM180.05 5.99L183.13 5.99L183.13 0.67L180.05 0.67L180.05 5.99ZM196.65 8.32C193.65 8.32 191.56 9.87 189.59 11.94L189.59 8.89L186.64 8.89L186.64 32.18L189.75 32.18L189.75 17.99C189.72 14.21 192.9 11.01 196.7 11.01C201.41 11.01 203.89 15.12 203.89 19.36L203.89 32.18L206.78 32.18L206.78 19.36C206.78 13.31 203.19 8.32 196.65 8.32Z" fill="#FFFFFF" fill-opacity="1.000000" fill-rule="evenodd"/>
</svg>
